<svg width="16" height="18" viewBox="0 0 16 18" fill="none" xmlns="http://www.w3.org/2000/svg">
<path fill-rule="evenodd" clip-rule="evenodd" d="M15.7027 2.9349L8.14267 0.204899C8.05048 0.171609 7.94956 0.171609 7.85737 0.204899L0.297369 2.9349C0.130932 2.995 0.0200195 3.15298 0.0200195 3.32993V8.99993C0.0200195 13.4524 2.67915 16.407 7.89117 17.8056C7.96341 17.825 8.03952 17.8247 8.11163 17.8048C13.3219 16.3685 15.98 13.4151 15.98 8.99993V3.32993C15.98 3.15298 15.8691 2.995 15.7027 2.9349ZM5.1005 8.26526C5.26854 8.10536 5.53438 8.11196 5.69428 8.28L7.39333 10.0656L10.9612 6.19526C11.1184 6.02471 11.3841 6.01391 11.5547 6.17113C11.7252 6.32835 11.736 6.59406 11.5788 6.76461L7.70699 10.9646C7.54244 11.1431 7.26127 11.1453 7.09392 10.9695L5.08576 8.85905C4.92586 8.69101 4.93246 8.42516 5.1005 8.26526Z" fill="#1565D8"/>
</svg>
