<svg width="18" height="18" viewBox="0 0 18 18" fill="none" xmlns="http://www.w3.org/2000/svg">
<path fill-rule="evenodd" clip-rule="evenodd" d="M4.53357 6.74362C5.6375 5.17485 6.32657 3.37472 6.60301 1.33679C6.62935 1.14265 6.76677 0.981229 6.95539 0.922855C8.85649 0.33452 9.93731 1.26943 9.91945 3.40122C9.91599 3.81502 9.8969 4.18283 9.85624 4.74537C9.76544 6.00189 9.77265 6.34479 9.91334 6.57552C10.0486 6.79732 10.4876 6.87304 11.5259 6.67591C11.8535 6.61371 12.1822 6.5432 12.5462 6.45851C12.7069 6.42113 13.8644 6.1387 14.1603 6.07482C14.7246 5.95295 15.1296 5.90138 15.4857 5.92322C16.4504 5.98238 16.9623 6.6035 17.0507 7.79348C17.2065 9.88912 16.7252 14.0985 16.245 15.6489C15.7543 17.2333 14.8986 17.8314 12.8444 17.8675C11.5237 17.8907 9.4925 17.8907 6.74123 17.8674C6.0389 17.8511 5.40242 17.7151 4.83626 17.4608C4.99519 17.1318 5.08418 16.7632 5.08418 16.374V8.31C5.08418 7.71802 4.87827 7.17371 4.53357 6.74362Z" fill="#1565D8"/>
<path opacity="0.3" fill-rule="evenodd" clip-rule="evenodd" d="M1.52526 6.7981C0.682884 6.7981 0 7.47504 0 8.3101V16.3741C0 17.2092 0.682884 17.8861 1.52526 17.8861H2.54211C3.38448 17.8861 4.06737 17.2092 4.06737 16.3741V8.3101C4.06737 7.47504 3.38448 6.7981 2.54211 6.7981H1.52526Z" fill="#1565D8"/>
</svg>
