<svg width="18" height="17" viewBox="0 0 18 17" fill="none" xmlns="http://www.w3.org/2000/svg">
<path fill-rule="evenodd" clip-rule="evenodd" d="M9.66297 9.61806C10.1854 8.483 9.70391 7.54779 8.37379 6.96856L6.17014 6.05866C5.45622 5.7639 4.6382 5.88538 4.04058 6.37489L2.01398 8.03488L1.95505 8.62592L1.86011 13.4599V14.2999H4.31206L9.31274 15.7208C9.94357 15.9 10.6219 15.7738 11.1462 15.3797C14.4412 12.9031 16.6427 11.2307 16.9761 10.9207C17.7844 10.1692 18.1026 9.33363 17.5267 8.50996C17.0612 7.84418 16.2761 7.77316 15.3031 8.21367L10.5707 10.6205L9.24002 10.1974C9.41159 10.0494 9.55308 9.85678 9.66297 9.61806Z" fill="#1565D8"/>
<path fill-rule="evenodd" clip-rule="evenodd" d="M1.65006 6.94994H1.44006C1.09212 6.94994 0.810059 6.66788 0.810059 6.31994C0.810059 5.972 1.09212 5.68994 1.44006 5.68994H2.28006C2.628 5.68994 2.91006 5.972 2.91006 6.31994V15.5599C2.91006 15.9079 2.628 16.1899 2.28006 16.1899H1.44006C1.09212 16.1899 0.810059 15.9079 0.810059 15.5599C0.810059 15.212 1.09212 14.9299 1.44006 14.9299H1.65006V6.94994Z" fill="#44D5E9"/>
<path fill-rule="evenodd" clip-rule="evenodd" d="M13.2 0.86094H14.2106C14.5586 0.86094 14.8406 1.14326 14.8406 1.4914V1.80972C14.8406 2.15786 14.5586 2.44018 14.2106 2.44018C13.9789 2.44018 13.7726 2.31404 13.6631 2.12186H11.7417C11.6258 2.12186 11.5317 2.21604 11.5317 2.33232V2.75342C11.5317 2.8697 11.6258 2.96388 11.7417 2.96388H13.41C14.2219 2.96388 14.88 3.62269 14.88 4.43526V4.85508C14.88 5.66765 14.2219 6.32646 13.41 6.32646H13.2V6.52956C13.2 6.8777 12.918 7.16002 12.57 7.16002C12.222 7.16002 11.94 6.8777 11.94 6.52956V6.32646H10.89C10.5345 6.32646 10.2495 6.03233 10.2603 5.67685L10.272 5.29139C10.2826 4.9434 10.573 4.66979 10.9209 4.68038C11.1736 4.68807 11.3891 4.84436 11.4824 5.06554H13.41C13.5259 5.06554 13.62 4.97137 13.62 4.85508V4.43526C13.62 4.31897 13.5259 4.2248 13.41 4.2248H11.7417C10.9298 4.2248 10.2717 3.56599 10.2717 2.75342V2.33232C10.2717 1.51975 10.9298 0.86094 11.7417 0.86094H11.94V0.65048C11.94 0.302338 12.222 0.0200195 12.57 0.0200195C12.918 0.0200195 13.2 0.302338 13.2 0.65048V0.86094Z" fill="#44D5E9"/>
</svg>
